Coordinates
version=1
nRows=9
nColumns=42
inDegrees=yes

Units are S.I. units (second, meters, Newtons, ...)
If the header above contains a line with 'inDegrees', this indicates whether rotational values are in degrees (yes) or radians (no).

endheader
time	pelvis_tilt	pelvis_list	pelvis_rotation	pelvis_tx	pelvis_ty	pelvis_tz	hip_flexion_r	hip_adduction_r	hip_rotation_r	knee_angle_r	knee_adduction_r	knee_angle_r_beta	ankle_angle_r	subtalar_angle_r	mtp_angle_r	hip_flexion_l	hip_adduction_l	hip_rotation_l	knee_angle_l	knee_adduction_l	knee_angle_l_beta	ankle_angle_l	subtalar_angle_l	mtp_angle_l	lumbar_extension	lumbar_bending	lumbar_rotation	arm_flex_r	arm_add_r	arm_rot_r	elbow_flex_r	pro_sup_r	wrist_flex_r	wrist_dev_r	arm_flex_l	arm_add_l	arm_rot_l	elbow_flex_l	pro_sup_l	wrist_flex_l	wrist_dev_l
      1.77000000	     13.72855275	     -4.24258710	      2.94518741	     -0.31117299	      0.87881245	      0.16283375	      9.96017949	      4.56407843	    -28.63479422	     28.81171336	     -5.55664979	      0.50285926	     17.72250014	     30.17374668	     -7.50765144	    -24.50022002	     -5.02901838	    -14.38286434	     41.72182374	    -11.56307291	      0.72818319	     11.71621850	     26.40237596	     -7.50765144	    -37.86397809	      8.88734679	     -2.34773894	      2.24605610	    -15.14687894	      2.13690000	     42.90158253	     90.00000001	      0.00000000	      0.00000000	     17.97474858	    -14.82077621	      0.97225840	     57.15266600	     90.00000001	      0.00000000	      0.00000000
      1.78000000	     13.76057887	     -4.57581989	      3.24110476	     -0.29836874	      0.88141581	      0.16397704	      8.46587762	      5.12063063	    -28.92503431	     27.85166431	     -5.26106962	      0.48610324	     18.32320756	     30.60934911	     -7.50748562	    -22.74726054	     -5.69973816	    -14.68238675	     44.60598919	    -12.56597688	      0.77852138	     11.59837160	     26.12778316	     -7.50748562	    -37.95548847	      9.28323511	     -2.25926112	      2.51419700	    -15.19967642	      2.21637368	     43.16436927	     90.00000001	      0.00000000	      0.00000000	     17.39711777	    -14.67043592	      1.11261059	     56.78910270	     90.00000001	      0.00000000	      0.00000000
      1.79000000	     13.74204081	     -4.89937132	      3.58885320	     -0.28577390	      0.88377925	      0.16530447	      7.09191434	      5.76199873	    -29.88763177	     26.71941021	     -5.42478429	      0.46634168	     18.59733144	     31.98863649	     -7.50720813	    -20.77109518	     -6.46956876	    -15.02045423	     47.43974752	    -13.46022727	      0.82797979	     12.08234849	     25.98714282	     -7.50720813	    -37.99258679	      9.63679959	     -2.13995943	      2.73139273	    -15.23657547	      2.30134023	     43.47326180	     90.00000001	      0.00000000	      0.00000000	     16.86172047	    -14.56143755	      1.33448159	     56.36268230	     90.00000001	      0.00000000	      0.00000000
      1.80000000	     13.83109389	     -4.83063105	      4.01429218	     -0.27337339	      0.88633252	      0.16609340	      5.60021475	      5.83889004	    -31.16737442	     25.71260557	     -5.53507756	      0.44876963	     18.98874425	     34.06027475	     -7.50669936	    -18.84633662	     -6.64703622	    -15.10195734	     49.80962709	    -14.46027379	      0.86934199	     12.58188992	     25.50735986	     -7.50669936	    -38.14580371	      9.66797265	     -2.27625526	      2.95394812	    -15.19230834	      2.32028087	     43.88276086	     90.00000001	      0.00000000	      0.00000000	     16.38314806	    -14.50097593	      1.57042620	     55.88813068	     90.00000001	      0.00000000	      0.00000000
      1.81000000	     13.86277823	     -4.75702967	      4.43949627	     -0.26127343	      0.88875680	      0.16687746	      4.14987351	      6.02943809	    -31.54705781	     24.71050419	     -5.32324601	      0.43127966	     19.55328906	     34.55949765	     -7.50649177	    -16.75652364	     -6.80242624	    -15.17386590	     51.99844864	    -15.33613007	      0.90754413	     13.29911158	     24.79275694	     -7.50649177	    -38.26717078	      9.68439790	     -2.37879228	      3.17731305	    -15.18387648	      2.38520604	     44.36815405	     90.00000001	      0.00000000	      0.00000000	     15.95534176	    -14.41716593	      1.74804757	     55.32824771	     90.00000001	      0.00000000	      0.00000000
      1.82000000	     13.99803330	     -4.35081589	      4.76858904	     -0.24937168	      0.89139844	      0.16745406	      2.60702914	      5.79361728	    -31.56975415	     23.92264754	     -4.90192983	      0.41752897	     19.98618928	     34.44149908	     -7.50639736	    -14.84409767	     -6.38412522	    -15.27874521	     53.59556362	    -16.27385295	      0.93541905	     13.87459588	     24.26611952	     -7.50639736	    -38.56022920	      9.34177291	     -2.58179452	      3.44976156	    -15.12379439	      2.42582289	     44.83663558	     90.00000001	      0.00000000	      0.00000000	     15.55219263	    -14.38697415	      1.83670313	     54.82054978	     90.00000001	      0.00000000	      0.00000000
      1.83000000	     13.90622136	     -4.18618508	      5.32639655	     -0.23753979	      0.89329700	      0.16809708	      1.42990348	      5.87872973	    -32.51405535	     23.03122079	     -4.94223655	      0.40197063	     20.38742343	     35.82336895	     -7.50603658	    -12.49191510	     -6.38678843	    -14.86313286	     55.36825643	    -16.64897127	      0.96635838	     15.00559181	     22.86839890	     -7.50603658	    -38.53559067	      9.30959296	     -2.77473713	      3.60968727	    -15.12365242	      2.55572816	     45.42747398	     90.00000001	      0.00000000	      0.00000000	     15.16830647	    -14.34582491	      2.15111206	     54.13872862	     90.00000001	      0.00000000	      0.00000000
      1.84000000	     13.93376303	     -3.86088248	      5.69404478	     -0.22572733	      0.89531558	      0.16873287	      0.08288001	      5.82120036	    -32.48671739	     22.26855062	     -4.64612550	      0.38865953	     21.02262200	     35.84246184	     -7.50585333	    -10.40198610	     -6.04188670	    -14.82767648	     56.51176752	    -17.15716369	      0.98631641	     15.99825608	     21.99132516	     -7.50585333	    -38.68220723	      9.04395665	     -2.90156616	      3.79425674	    -15.14436679	      2.67372482	     46.05203353	     90.00000001	      0.00000000	      0.00000000	     14.77525011	    -14.28481507	      2.25431199	     53.49243823	     90.00000001	      0.00000000	      0.00000000
      1.85000000	     13.92680814	     -3.44515826	      6.05079956	     -0.21397228	      0.89714833	      0.16918585	     -1.22465803	      5.62330765	    -32.21962484	     21.59085574	     -4.20884662	      0.37683152	     21.51445449	     35.51215072	     -7.50575467	     -8.31642314	     -5.49820804	    -14.82523954	     57.24914931	    -17.62530470	      0.99918615	     16.81810572	     21.31742888	     -7.50575467	    -38.80343657	      8.70572735	     -3.09497404	      4.01789258	    -15.14885269	      2.76097515	     46.64779536	     90.00000001	      0.00000000	      0.00000000	     14.31882537	    -14.24522308	      2.32549615	     52.93224675	     90.00000001	      0.00000000	      0.00000000
